<mxfile host="app.diagrams.net" modified="2024-04-11T23:54:38.329Z" agent="Mozilla/5.0 (Windows NT 10.0; Win64; x64) AppleWebKit/537.36 (KHTML, like Gecko) Chrome/123.0.0.0 Safari/537.36" etag="vfpb49tgkLt40F-ErZYq" version="24.2.3" type="github">
  <diagram id="R2lEEEUBdFMjLlhIrx00" name="Page-1">
    <mxGraphModel dx="856" dy="468" grid="1" gridSize="10" guides="1" tooltips="1" connect="1" arrows="1" fold="1" page="1" pageScale="1" pageWidth="850" pageHeight="1100" math="0" shadow="0" extFonts="Permanent Marker^https://fonts.googleapis.com/css?family=Permanent+Marker">
      <root>
        <mxCell id="0" />
        <mxCell id="1" parent="0" />
        <mxCell id="IuPww5WdxIPOrY8mWLjz-48" value="" style="edgeStyle=orthogonalEdgeStyle;rounded=0;orthogonalLoop=1;jettySize=auto;html=1;endArrow=none;endFill=0;exitX=0.75;exitY=0;exitDx=0;exitDy=0;" edge="1" parent="1" source="IuPww5WdxIPOrY8mWLjz-17" target="IuPww5WdxIPOrY8mWLjz-26">
          <mxGeometry relative="1" as="geometry">
            <mxPoint x="190" y="230" as="sourcePoint" />
            <Array as="points">
              <mxPoint x="195" y="215" />
              <mxPoint x="240" y="215" />
            </Array>
          </mxGeometry>
        </mxCell>
        <mxCell id="IuPww5WdxIPOrY8mWLjz-49" value="" style="edgeStyle=orthogonalEdgeStyle;rounded=0;orthogonalLoop=1;jettySize=auto;html=1;endArrow=none;endFill=0;" edge="1" parent="1" source="IuPww5WdxIPOrY8mWLjz-17" target="IuPww5WdxIPOrY8mWLjz-37">
          <mxGeometry relative="1" as="geometry">
            <Array as="points">
              <mxPoint x="80" y="250" />
              <mxPoint x="80" y="250" />
              <mxPoint x="50" y="250" />
            </Array>
          </mxGeometry>
        </mxCell>
        <mxCell id="IuPww5WdxIPOrY8mWLjz-50" value="" style="rounded=0;orthogonalLoop=1;jettySize=auto;html=1;endArrow=none;endFill=0;" edge="1" parent="1" target="IuPww5WdxIPOrY8mWLjz-38">
          <mxGeometry relative="1" as="geometry">
            <mxPoint x="138" y="272" as="sourcePoint" />
          </mxGeometry>
        </mxCell>
        <mxCell id="IuPww5WdxIPOrY8mWLjz-17" value="Proceso" style="whiteSpace=wrap;html=1;align=center;" vertex="1" parent="1">
          <mxGeometry x="120" y="240" width="100" height="40" as="geometry" />
        </mxCell>
        <mxCell id="IuPww5WdxIPOrY8mWLjz-24" value="Fabrica" style="whiteSpace=wrap;html=1;align=center;" vertex="1" parent="1">
          <mxGeometry x="280" y="10" width="100" height="40" as="geometry" />
        </mxCell>
        <mxCell id="IuPww5WdxIPOrY8mWLjz-41" value="" style="edgeStyle=orthogonalEdgeStyle;rounded=0;orthogonalLoop=1;jettySize=auto;html=1;endArrow=none;endFill=0;" edge="1" parent="1" source="IuPww5WdxIPOrY8mWLjz-25" target="IuPww5WdxIPOrY8mWLjz-40">
          <mxGeometry relative="1" as="geometry" />
        </mxCell>
        <mxCell id="IuPww5WdxIPOrY8mWLjz-51" value="" style="edgeStyle=orthogonalEdgeStyle;rounded=0;orthogonalLoop=1;jettySize=auto;html=1;endArrow=none;endFill=0;" edge="1" parent="1" source="IuPww5WdxIPOrY8mWLjz-25" target="IuPww5WdxIPOrY8mWLjz-26">
          <mxGeometry relative="1" as="geometry" />
        </mxCell>
        <mxCell id="IuPww5WdxIPOrY8mWLjz-25" value="Maquina" style="whiteSpace=wrap;html=1;align=center;" vertex="1" parent="1">
          <mxGeometry x="410" y="150" width="100" height="40" as="geometry" />
        </mxCell>
        <mxCell id="IuPww5WdxIPOrY8mWLjz-44" value="" style="edgeStyle=orthogonalEdgeStyle;rounded=0;orthogonalLoop=1;jettySize=auto;html=1;endArrow=none;endFill=0;" edge="1" parent="1" source="IuPww5WdxIPOrY8mWLjz-26" target="IuPww5WdxIPOrY8mWLjz-32">
          <mxGeometry relative="1" as="geometry">
            <Array as="points">
              <mxPoint x="240" y="90" />
            </Array>
          </mxGeometry>
        </mxCell>
        <mxCell id="IuPww5WdxIPOrY8mWLjz-26" value="Planta" style="whiteSpace=wrap;html=1;align=center;" vertex="1" parent="1">
          <mxGeometry x="230" y="150" width="100" height="40" as="geometry" />
        </mxCell>
        <mxCell id="IuPww5WdxIPOrY8mWLjz-27" value="Teléfono" style="whiteSpace=wrap;html=1;align=center;" vertex="1" parent="1">
          <mxGeometry x="400" y="460" width="100" height="40" as="geometry" />
        </mxCell>
        <mxCell id="IuPww5WdxIPOrY8mWLjz-55" value="" style="edgeStyle=orthogonalEdgeStyle;rounded=0;orthogonalLoop=1;jettySize=auto;html=1;entryX=0.25;entryY=1;entryDx=0;entryDy=0;exitX=0.656;exitY=0.015;exitDx=0;exitDy=0;exitPerimeter=0;endArrow=none;endFill=0;" edge="1" parent="1" source="IuPww5WdxIPOrY8mWLjz-28" target="IuPww5WdxIPOrY8mWLjz-25">
          <mxGeometry relative="1" as="geometry" />
        </mxCell>
        <mxCell id="IuPww5WdxIPOrY8mWLjz-28" value="Técnico" style="whiteSpace=wrap;html=1;align=center;" vertex="1" parent="1">
          <mxGeometry x="400" y="340" width="100" height="40" as="geometry" />
        </mxCell>
        <mxCell id="IuPww5WdxIPOrY8mWLjz-29" style="edgeStyle=orthogonalEdgeStyle;rounded=0;orthogonalLoop=1;jettySize=auto;html=1;exitX=0.5;exitY=1;exitDx=0;exitDy=0;" edge="1" parent="1" source="IuPww5WdxIPOrY8mWLjz-25" target="IuPww5WdxIPOrY8mWLjz-25">
          <mxGeometry relative="1" as="geometry" />
        </mxCell>
        <mxCell id="IuPww5WdxIPOrY8mWLjz-32" value="Color (id)" style="ellipse;whiteSpace=wrap;html=1;align=center;" vertex="1" parent="1">
          <mxGeometry x="90" y="70" width="100" height="40" as="geometry" />
        </mxCell>
        <mxCell id="IuPww5WdxIPOrY8mWLjz-33" value="" style="endArrow=none;html=1;rounded=0;exitX=0;exitY=0.5;exitDx=0;exitDy=0;entryX=0.5;entryY=0;entryDx=0;entryDy=0;" edge="1" parent="1" source="IuPww5WdxIPOrY8mWLjz-24" target="IuPww5WdxIPOrY8mWLjz-26">
          <mxGeometry relative="1" as="geometry">
            <mxPoint x="280" y="250" as="sourcePoint" />
            <mxPoint x="440" y="250" as="targetPoint" />
            <Array as="points">
              <mxPoint x="280" y="80" />
            </Array>
          </mxGeometry>
        </mxCell>
        <mxCell id="IuPww5WdxIPOrY8mWLjz-34" value="" style="resizable=0;html=1;whiteSpace=wrap;align=right;verticalAlign=bottom;" connectable="0" vertex="1" parent="IuPww5WdxIPOrY8mWLjz-33">
          <mxGeometry x="1" relative="1" as="geometry" />
        </mxCell>
        <mxCell id="IuPww5WdxIPOrY8mWLjz-52" value="" style="edgeStyle=orthogonalEdgeStyle;rounded=0;orthogonalLoop=1;jettySize=auto;html=1;endArrow=none;endFill=0;" edge="1" parent="1" source="IuPww5WdxIPOrY8mWLjz-36" target="IuPww5WdxIPOrY8mWLjz-25">
          <mxGeometry relative="1" as="geometry" />
        </mxCell>
        <mxCell id="IuPww5WdxIPOrY8mWLjz-36" value="Marca" style="ellipse;whiteSpace=wrap;html=1;align=center;" vertex="1" parent="1">
          <mxGeometry x="580" y="210" width="100" height="40" as="geometry" />
        </mxCell>
        <mxCell id="IuPww5WdxIPOrY8mWLjz-37" value="Nombre" style="ellipse;whiteSpace=wrap;html=1;align=center;" vertex="1" parent="1">
          <mxGeometry y="270" width="100" height="40" as="geometry" />
        </mxCell>
        <mxCell id="IuPww5WdxIPOrY8mWLjz-38" value="Grado de complejidad" style="ellipse;whiteSpace=wrap;html=1;align=center;" vertex="1" parent="1">
          <mxGeometry x="90" y="310" width="100" height="40" as="geometry" />
        </mxCell>
        <mxCell id="IuPww5WdxIPOrY8mWLjz-46" value="" style="edgeStyle=orthogonalEdgeStyle;rounded=0;orthogonalLoop=1;jettySize=auto;html=1;endArrow=none;endFill=0;" edge="1" parent="1" source="IuPww5WdxIPOrY8mWLjz-39" target="IuPww5WdxIPOrY8mWLjz-26">
          <mxGeometry relative="1" as="geometry">
            <Array as="points">
              <mxPoint x="230" y="190" />
              <mxPoint x="230" y="190" />
            </Array>
          </mxGeometry>
        </mxCell>
        <mxCell id="IuPww5WdxIPOrY8mWLjz-39" value="Superficie" style="ellipse;whiteSpace=wrap;html=1;align=center;" vertex="1" parent="1">
          <mxGeometry x="90" y="150" width="100" height="40" as="geometry" />
        </mxCell>
        <mxCell id="IuPww5WdxIPOrY8mWLjz-40" value="Numero de Maquina (id)" style="ellipse;whiteSpace=wrap;html=1;align=center;" vertex="1" parent="1">
          <mxGeometry x="600" y="150" width="100" height="40" as="geometry" />
        </mxCell>
        <mxCell id="IuPww5WdxIPOrY8mWLjz-54" value="" style="edgeStyle=orthogonalEdgeStyle;rounded=0;orthogonalLoop=1;jettySize=auto;html=1;endArrow=none;endFill=0;" edge="1" parent="1" source="IuPww5WdxIPOrY8mWLjz-53" target="IuPww5WdxIPOrY8mWLjz-25">
          <mxGeometry relative="1" as="geometry" />
        </mxCell>
        <mxCell id="IuPww5WdxIPOrY8mWLjz-53" value="Modelo" style="ellipse;whiteSpace=wrap;html=1;align=center;" vertex="1" parent="1">
          <mxGeometry x="580" y="90" width="100" height="40" as="geometry" />
        </mxCell>
        <mxCell id="IuPww5WdxIPOrY8mWLjz-56" value="" style="endArrow=none;html=1;rounded=0;dashed=1;dashPattern=1 2;exitX=0.5;exitY=1;exitDx=0;exitDy=0;entryX=0.5;entryY=0;entryDx=0;entryDy=0;" edge="1" parent="1" source="IuPww5WdxIPOrY8mWLjz-28" target="IuPww5WdxIPOrY8mWLjz-27">
          <mxGeometry relative="1" as="geometry">
            <mxPoint x="490" y="340" as="sourcePoint" />
            <mxPoint x="650" y="340" as="targetPoint" />
          </mxGeometry>
        </mxCell>
        <mxCell id="IuPww5WdxIPOrY8mWLjz-57" value="1...N" style="resizable=0;html=1;whiteSpace=wrap;align=right;verticalAlign=bottom;" connectable="0" vertex="1" parent="IuPww5WdxIPOrY8mWLjz-56">
          <mxGeometry x="1" relative="1" as="geometry" />
        </mxCell>
        <mxCell id="IuPww5WdxIPOrY8mWLjz-58" value="Fecha de Nacimiento" style="ellipse;whiteSpace=wrap;html=1;align=center;" vertex="1" parent="1">
          <mxGeometry x="530" y="410" width="100" height="40" as="geometry" />
        </mxCell>
        <mxCell id="IuPww5WdxIPOrY8mWLjz-62" value="" style="edgeStyle=orthogonalEdgeStyle;rounded=0;orthogonalLoop=1;jettySize=auto;html=1;endArrow=none;endFill=0;" edge="1" parent="1" source="IuPww5WdxIPOrY8mWLjz-59" target="IuPww5WdxIPOrY8mWLjz-28">
          <mxGeometry relative="1" as="geometry" />
        </mxCell>
        <mxCell id="IuPww5WdxIPOrY8mWLjz-59" value="Nombre y apellido" style="ellipse;whiteSpace=wrap;html=1;align=center;" vertex="1" parent="1">
          <mxGeometry x="550" y="350" width="100" height="40" as="geometry" />
        </mxCell>
        <mxCell id="IuPww5WdxIPOrY8mWLjz-63" value="" style="edgeStyle=orthogonalEdgeStyle;rounded=0;orthogonalLoop=1;jettySize=auto;html=1;entryX=1;entryY=0;entryDx=0;entryDy=0;endArrow=none;endFill=0;" edge="1" parent="1" source="IuPww5WdxIPOrY8mWLjz-60" target="IuPww5WdxIPOrY8mWLjz-28">
          <mxGeometry relative="1" as="geometry" />
        </mxCell>
        <mxCell id="IuPww5WdxIPOrY8mWLjz-60" value="DNI" style="ellipse;whiteSpace=wrap;html=1;align=center;" vertex="1" parent="1">
          <mxGeometry x="550" y="300" width="100" height="40" as="geometry" />
        </mxCell>
        <mxCell id="IuPww5WdxIPOrY8mWLjz-64" style="edgeStyle=orthogonalEdgeStyle;rounded=0;orthogonalLoop=1;jettySize=auto;html=1;exitX=0;exitY=0;exitDx=0;exitDy=0;entryX=1;entryY=1;entryDx=0;entryDy=0;endArrow=none;endFill=0;" edge="1" parent="1" source="IuPww5WdxIPOrY8mWLjz-58" target="IuPww5WdxIPOrY8mWLjz-28">
          <mxGeometry relative="1" as="geometry" />
        </mxCell>
      </root>
    </mxGraphModel>
  </diagram>
</mxfile>
